<svg id="Layer_35" enable-background="new 0 0 64 64" height="512" viewBox="0 0 64 64" width="512" xmlns="http://www.w3.org/2000/svg"><g fill="#ff826e"><path d="m52 21h6v41h-6z"/><path d="m38 34h6v28h-6z"/><path d="m24 44h6v18h-6z"/></g><path d="m62 8v4c0 1.1-.9 2-2 2h-3l-2 3-2-3h-3c-1.1 0-2-.9-2-2v-4c0-1.1.9-2 2-2h10c1.1 0 2 .9 2 2z" fill="#ffeaa7"/><path d="m48 20v4c0 1.1-.9 2-2 2h-3l-2 3-2-3h-3c-1.1 0-2-.9-2-2v-4c0-1.1.9-2 2-2h10c1.1 0 2 .9 2 2z" fill="#ffeaa7"/><path d="m34 31v4c0 1.1-.9 2-2 2h-3l-2 3-2-3h-6v-2-6h13c1.1 0 2 .9 2 2z" fill="#ffeaa7"/><path d="m13 35v24c0 .83-.34 1.58-.88 2.12s-1.29.88-2.12.88c-1.66 0-3-1.34-3-3v-22-2z" fill="#cf9e76"/><path d="m19 37v22c0 .83-.34 1.58-.88 2.12s-1.29.88-2.12.88c-1.66 0-3-1.34-3-3v-24h6z" fill="#cf9e76"/><path d="m7 35v2h-1c-2.21 0-4-1.79-4-4v-7c0-4.49 2.96-8.29 7.04-9.55.24 2 1.9 3.55 3.96 3.55 2.21 0 4-1.79 4-4 0-.09-.02-.18-.03-.27l8.03-.73v-10.5c0-.69.28-1.32.73-1.77s1.08-.73 1.77-.73c1.38 0 2.5 1.12 2.5 2.5v11.85c0 2.07-1.58 3.79-3.64 3.98l-7.36.67v8 6h-6z" fill="#b4dd7f"/><path d="m14 16 2.97-.27c.01.09.03.18.03.27 0 2.21-1.79 4-4 4-2.06 0-3.72-1.55-3.96-3.55.93-.29 1.93-.45 2.96-.45h1z" fill="#f0d0b4"/><circle cx="13" cy="10" fill="#f0d0b4" r="6"/><path d="m12 23h2v2h-2z"/><path d="m12 27h2v2h-2z"/><path d="m51 61h-6v-28h-8v28h-6v-18h-8v20h36v-43h-8zm-22 0h-4v-16h4zm10-26h4v26h-4zm14-13h4v39h-4z"/><path d="m51 9h2v2h-2z"/><path d="m55 9h4v2h-4z"/><path d="m60 5h-10c-1.654 0-3 1.346-3 3v4c0 1.654 1.346 3 3 3h2.465l2.535 3.803 2.535-3.803h2.465c1.654 0 3-1.346 3-3v-4c0-1.654-1.346-3-3-3zm1 7c0 .552-.449 1-1 1h-3.535l-1.465 2.197-1.465-2.197h-3.535c-.551 0-1-.448-1-1v-4c0-.552.449-1 1-1h10c.551 0 1 .448 1 1z"/><path d="m37 21h2v2h-2z"/><path d="m41 21h4v2h-4z"/><path d="m36 27h2.465l2.535 3.803 2.535-3.803h2.465c1.654 0 3-1.346 3-3v-4c0-1.654-1.346-3-3-3h-10c-1.654 0-3 1.346-3 3v4c0 1.654 1.346 3 3 3zm-1-7c0-.552.449-1 1-1h10c.551 0 1 .448 1 1v4c0 .552-.449 1-1 1h-3.535l-1.465 2.197-1.465-2.197h-3.535c-.551 0-1-.448-1-1z"/><path d="m22 32h2v2h-2z"/><path d="m26 32h5v2h-5z"/><path d="m24.465 38 2.535 3.803 2.535-3.803h2.465c1.654 0 3-1.346 3-3v-4c0-1.654-1.346-3-3-3h-12v-6.087l6.453-.586c2.592-.236 4.547-2.377 4.547-4.98v-11.847c0-1.93-1.57-3.5-3.5-3.5s-3.5 1.57-3.5 3.5v9.587l-5.748.525c1.085-1.234 1.748-2.845 1.748-4.612 0-3.859-3.14-7-7-7s-7 3.141-7 7c0 2.236 1.058 4.226 2.696 5.509-4.456 1.406-7.696 5.577-7.696 10.491v7c0 2.757 2.243 5 5 5v21c0 2.206 1.794 4 4 4 1.2 0 2.266-.542 3-1.382.734.84 1.8 1.382 3 1.382 2.206 0 4-1.794 4-4v-21zm7.535-8c.551 0 1 .448 1 1v4c0 .552-.449 1-1 1h-3.535l-1.465 2.197-1.465-2.197h-5.535v-6zm-24-20c0-2.757 2.243-5 5-5s5 2.243 5 5-2.243 5-5 5-5-2.243-5-5zm5 7c.013 0 .025-.002.038-.002l1.052-.002 1.777-.162c-.364 1.247-1.504 2.166-2.867 2.166-1.221 0-2.273-.748-2.731-1.829.561-.11 1.139-.171 1.731-.171l.964-.002c.012 0 .024.002.036.002zm-10 16v-7c0-3.668 2.209-6.826 5.364-8.226.72 1.899 2.528 3.226 4.636 3.226 2.535 0 4.614-1.904 4.935-4.354l8.065-.733v-11.413c0-.827.673-1.5 1.5-1.5s1.5.673 1.5 1.5v11.847c0 1.562-1.173 2.847-2.728 2.988l-8.272.752v13.913h-10v-13h-2v15c-1.654 0-3-1.346-3-3zm7 28c-1.103 0-2-.897-2-2v-23h4v23c0 1.103-.897 2-2 2zm6 0c-1.103 0-2-.897-2-2v-23h4v23c0 1.103-.897 2-2 2z"/></svg>