<svg id="Capa_1" enable-background="new 0 0 512 512" height="512" viewBox="0 0 512 512" width="512" xmlns="http://www.w3.org/2000/svg"><g><g><path d="m87.661 360.209h-48.096c-4.427 0-8.016 3.589-8.016 8.016v72.145h64.129v-72.145c-.001-4.427-3.589-8.016-8.017-8.016z" fill="#7dc3ee"/><path d="m55.597 400.29v-40.081h-16.032c-4.427 0-8.016 3.589-8.016 8.016v72.145h64.129v-24.048h-24.049c-8.854 0-16.032-7.178-16.032-16.032z" fill="#64acdc"/><path d="m215.919 264.016h-48.097l-8.016 176.355h64.129v-168.339c0-4.427-3.588-8.016-8.016-8.016z" fill="#e15f78"/><path d="m183.855 400.29v-96.194h-16.032c-4.427 0-8.016 3.589-8.016 8.016v128.258h64.129v-24.048h-24.048c-8.855 0-16.033-7.178-16.033-16.032z" fill="#db4655"/><path d="m344.177 312.113h-48.097c-4.427 0-8.016 3.589-8.016 8.016v120.242h64.129v-120.242c.001-4.428-3.588-8.016-8.016-8.016z" fill="#d6bdef"/><path d="m312.113 400.29v-88.177h-16.032c-4.427 0-8.016 3.589-8.016 8.016v120.242h64.129v-24.048h-24.048c-8.855-.001-16.033-7.179-16.033-16.033z" fill="#c3aff0"/><path d="m472.435 167.822h-48.097l-8.016 272.549h64.129v-264.533c.001-4.427-3.589-8.016-8.016-8.016z" fill="#afefa5"/><path d="m440.371 400.29v-232.468h-16.032c-4.427 0-8.016 3.589-8.016 8.016v264.532h64.129v-24.048h-24.048c-8.855 0-16.033-7.178-16.033-16.032z" fill="#8ce1a4"/><path d="m480.452 215.919h-64.129v-40.081c0-4.427 3.589-8.016 8.016-8.016h48.097c4.427 0 8.016 3.589 8.016 8.016z" fill="#cdffa0"/><path d="m440.371 167.822h-16.032c-4.427 0-8.016 3.589-8.016 8.016v40.081h24.048z" fill="#afefa5"/><path d="m312.113 344.177h-24.048v-24.048c0-4.427 3.589-8.016 8.016-8.016h16.032z" fill="#d6bdef"/><path d="m312.113 344.177h40.081v-24.048c0-4.427-3.589-8.016-8.016-8.016h-32.065z" fill="#ead1ff"/><path d="m183.855 312.113h-24.048v-40.081c0-4.427 3.589-8.016 8.016-8.016h16.032z" fill="#ff7d91"/><path d="m183.855 312.113h40.081v-40.081c0-4.427-3.589-8.016-8.016-8.016h-32.065z" fill="#ff9a9f"/><path d="m55.597 392.274h-24.049v-24.048c0-4.427 3.589-8.016 8.016-8.016h16.032v32.064z" fill="#7dc3ee"/><path d="m55.597 392.274h40.081v-24.048c0-4.427-3.589-8.016-8.016-8.016h-32.065z" fill="#9bd4f5"/></g><g><path d="m504.5 432.871h-16.548v-257.032c0-8.556-6.96-15.516-15.516-15.516h-48.097c-8.556 0-15.516 6.96-15.516 15.516v64.127c0 4.142 3.358 7.5 7.5 7.5s7.5-3.358 7.5-7.5v-16.547h49.129v209.452h-49.129v-160.839c0-4.142-3.358-7.5-7.5-7.5s-7.5 3.358-7.5 7.5v160.838h-49.129v-112.741c0-8.556-6.96-15.516-15.516-15.516h-48.097c-8.556 0-15.516 6.96-15.516 15.516v112.742h-49.129v-160.839c0-8.556-6.96-15.516-15.516-15.516h-48.097c-8.556 0-15.516 6.96-15.516 15.516v64.127c0 4.142 3.358 7.5 7.5 7.5s7.5-3.358 7.5-7.5v-16.547h49.129v113.258h-49.129v-64.647c0-4.142-3.358-7.5-7.5-7.5s-7.5 3.358-7.5 7.5v64.647h-49.129v-56.629c0-8.556-6.96-15.516-15.516-15.516h-48.098c-8.556 0-15.516 6.96-15.516 15.516v56.629h-16.548c-4.142 0-7.5 3.358-7.5 7.5s3.358 7.5 7.5 7.5h497c4.142 0 7.5-3.358 7.5-7.5s-3.358-7.499-7.5-7.499zm-80.677-224.452v-32.581c0-.285.231-.516.516-.516h48.097c.285 0 .516.231.516.516v32.581zm-256.516 96.193v-32.581c0-.285.231-.516.516-.516h48.097c.285 0 .516.231.516.516v32.581zm128.774 15h48.097c.285 0 .516.231.516.516v16.548h-49.129v-16.548c-.001-.284.231-.516.516-.516zm-.517 32.065h49.129v81.194h-49.129zm-256 24.048h48.097c.285 0 .516.231.516.516v16.549h-49.129v-16.549c0-.284.232-.516.516-.516zm-.516 32.065h49.129v25.081h-49.129z"/><path d="m15.516 343.661c1.919 0 3.839-.732 5.303-2.197l157.003-157.002c1.611-1.612 3.754-2.499 6.033-2.499s4.421.887 6.033 2.499l65.504 65.504c4.444 4.445 10.354 6.892 16.64 6.892s12.195-2.447 16.64-6.892l157.125-157.124-4.834 33.839c-.585 4.101 2.264 7.899 6.364 8.485.36.051.717.076 1.07.076 3.672 0 6.881-2.7 7.416-6.44l8.016-56.113c.333-2.337-.452-4.695-2.122-6.364-1.669-1.669-4.025-2.453-6.364-2.122l-56.113 8.017c-4.101.586-6.95 4.385-6.364 8.485.586 4.101 4.388 6.948 8.485 6.364l33.839-4.834-157.125 157.125c-1.611 1.611-3.754 2.499-6.033 2.499s-4.422-.887-6.033-2.499l-65.504-65.504c-4.445-4.445-10.354-6.893-16.64-6.893s-12.195 2.448-16.64 6.893l-157.002 157.002c-2.929 2.929-2.929 7.678 0 10.606 1.464 1.465 3.384 2.197 5.303 2.197z"/></g></g></svg>